# xmcd
#
# Track frame offsets: 
#        150
#        23245
#        42531
#        78357
#        97053
#        115424
#        134740
#        162629
#        179662
#        200703
#        222248
#        239856
#        258764
#        272351
#
# Disc length: 4047 seconds
#
# Revision: 0
# Processed by: cddbd v1.5.2PL0 Copyright (c) Steve Scherf et al.
# Submitted via: ExactAudioCopy v1.3
#
DISCID=dc0fcd0e
DTITLE=Dennis Jones Band - We3
DYEAR=2018
DGENRE=Electric Blues
TTITLE0=Blue Over You
TTITLE1=When I Die
TTITLE2=Passion For The Blues
TTITLE3=Stray Bullet
TTITLE4=Hot Sauce
TTITLE5=Don't Worry About Me
TTITLE6=Super Deluxe
TTITLE7=Enjoy The Ride
TTITLE8=You Don't Know a Thing About Love
TTITLE9=Kill The Pain
TTITLE10=Big Black Cat
TTITLE11=Devil's Nightmare
TTITLE12=I'm Good
TTITLE13=Born Under A Bad Sign
EXTD=
EXTT0=
EXTT1=
EXTT2=
EXTT3=
EXTT4=
EXTT5=
EXTT6=
EXTT7=
EXTT8=
EXTT9=
EXTT10=
EXTT11=
EXTT12=
EXTT13=
PLAYORDER=
